<svg width="64" height="10" viewBox="0 0 64 10" fill="none" xmlns="http://www.w3.org/2000/svg">
<path d="M9.78261e-06 -7.15256e-07H8.67601C9.38001 -7.15256e-07 9.96401 0.127999 10.428 0.383999C10.892 0.631999 11.24 0.956 11.472 1.356C11.704 1.748 11.82 2.164 11.82 2.604C11.82 3.06 11.692 3.504 11.436 3.936C11.188 4.36 10.808 4.708 10.296 4.98C9.79201 5.252 9.16001 5.388 8.40001 5.388C8.36801 5.388 8.28801 5.388 8.16001 5.388C8.03201 5.388 7.90001 5.388 7.76401 5.388C7.63601 5.388 7.55201 5.388 7.51201 5.388C7.51201 5.388 7.51201 5.392 7.51201 5.4C7.51201 5.408 7.51201 5.412 7.51201 5.412C7.51201 5.412 7.51201 5.416 7.51201 5.424C7.51201 5.424 7.51201 5.428 7.51201 5.436H10.236L12.084 9H6.38401C6.23201 8.592 6.07601 8.184 5.91601 7.776C5.76401 7.368 5.60801 6.96 5.44801 6.552C5.29601 6.144 5.14001 5.736 4.98001 5.328H6.37201C6.53201 5.328 6.67201 5.304 6.79201 5.256C6.92001 5.208 7.02401 5.144 7.10401 5.064C7.18401 4.984 7.24401 4.896 7.28401 4.8C7.32401 4.696 7.34401 4.592 7.34401 4.488C7.34401 4.344 7.30801 4.208 7.23601 4.08C7.16401 3.952 7.05601 3.848 6.91201 3.768C6.76801 3.688 6.58801 3.648 6.37201 3.648H5.00401C5.00401 3.648 5.00001 3.652 4.99201 3.66C4.99201 3.66 4.98801 3.66 4.98001 3.66C4.98001 3.66 4.98001 3.664 4.98001 3.672C4.98001 4.192 4.98001 4.576 4.98001 4.824C4.98001 5.064 4.98001 5.216 4.98001 5.28C4.98001 5.336 4.98001 5.356 4.98001 5.34C4.98001 5.34 4.98001 5.384 4.98001 5.472C4.98001 5.552 4.98001 5.664 4.98001 5.808C4.98001 5.952 4.98001 6.116 4.98001 6.3C4.98001 6.564 4.98001 6.856 4.98001 7.176C4.98001 7.496 4.98001 7.816 4.98001 8.136C4.98001 8.448 4.98001 8.736 4.98001 9H9.78261e-06C9.78261e-06 8.488 9.78261e-06 7.976 9.78261e-06 7.464C9.78261e-06 6.944 9.78261e-06 6.428 9.78261e-06 5.916C9.78261e-06 5.404 9.78261e-06 4.892 9.78261e-06 4.38C9.78261e-06 3.86 9.78261e-06 3.344 9.78261e-06 2.832C9.78261e-06 2.36 9.78261e-06 1.888 9.78261e-06 1.416C9.78261e-06 0.944 9.78261e-06 0.471999 9.78261e-06 -7.15256e-07ZM17.1868 6.288C17.6108 6.288 17.9388 6.212 18.1708 6.06C18.4028 5.908 18.5228 5.7 18.5308 5.436L22.2388 6.648C22.0948 7.152 21.7868 7.612 21.3148 8.028C20.8508 8.436 20.2628 8.76 19.5508 9C18.8388 9.24 18.0428 9.36 17.1628 9.36C16.4108 9.36 15.7068 9.276 15.0508 9.108C14.4028 8.94 13.8308 8.688 13.3348 8.352C12.8468 8.008 12.4628 7.58 12.1828 7.068C11.9028 6.556 11.7628 5.96 11.7628 5.28C11.7628 4.6 11.9028 4.004 12.1828 3.492C12.4628 2.98 12.8468 2.556 13.3348 2.22C13.8308 1.876 14.4068 1.62 15.0628 1.452C15.7188 1.284 16.4188 1.2 17.1628 1.2C17.9228 1.2 18.6188 1.284 19.2508 1.452C19.8908 1.62 20.4388 1.88 20.8948 2.232C21.3588 2.576 21.7148 3.016 21.9628 3.552C22.2188 4.08 22.3468 4.708 22.3468 5.436H15.8068C15.8068 5.436 15.8028 5.436 15.7948 5.436C15.7948 5.436 15.7948 5.44 15.7948 5.448C15.7948 5.568 15.8268 5.68 15.8908 5.784C15.9548 5.888 16.0428 5.98 16.1548 6.06C16.2748 6.132 16.4188 6.188 16.5868 6.228C16.7628 6.268 16.9628 6.288 17.1868 6.288ZM17.1628 4.236C16.7708 4.236 16.4468 4.308 16.1908 4.452C15.9348 4.588 15.8068 4.784 15.8068 5.04C15.8068 5.048 15.8068 5.056 15.8068 5.064C15.8148 5.064 15.8188 5.064 15.8188 5.064H18.4948C18.5028 5.064 18.5068 5.064 18.5068 5.064C18.5068 5.056 18.5068 5.048 18.5068 5.04C18.5068 4.912 18.4708 4.8 18.3988 4.704C18.3348 4.6 18.2428 4.516 18.1228 4.452C18.0028 4.38 17.8588 4.328 17.6908 4.296C17.5308 4.256 17.3548 4.236 17.1628 4.236ZM29.5755 9C29.5755 8.568 29.5755 8.14 29.5755 7.716C29.5755 7.284 29.5755 6.856 29.5755 6.432C29.5755 6 29.5755 5.572 29.5755 5.148C29.5755 4.996 29.5355 4.864 29.4555 4.752C29.3755 4.64 29.2675 4.548 29.1315 4.476C28.9955 4.404 28.8435 4.352 28.6755 4.32C28.5075 4.28 28.3315 4.26 28.1475 4.26C27.6835 4.26 27.3355 4.352 27.1035 4.536C26.8795 4.72 26.7675 4.924 26.7675 5.148C26.7675 5.316 26.8155 5.468 26.9115 5.604C27.0155 5.74 27.1675 5.852 27.3675 5.94C27.5755 6.02 27.8355 6.06 28.1475 6.06C28.4835 6.06 28.7835 6 29.0475 5.88C29.3115 5.76 29.4835 5.564 29.5635 5.292L28.6035 9C28.3475 9.064 28.1035 9.108 27.8715 9.132C27.6395 9.164 27.3715 9.18 27.0675 9.18C26.4515 9.18 25.8715 9.096 25.3275 8.928C24.7835 8.752 24.3035 8.496 23.8875 8.16C23.4795 7.824 23.1555 7.416 22.9155 6.936C22.6835 6.456 22.5675 5.908 22.5675 5.292C22.5675 4.764 22.6515 4.292 22.8195 3.876C22.9875 3.452 23.2155 3.084 23.5035 2.772C23.7995 2.46 24.1395 2.2 24.5235 1.992C24.9075 1.784 25.3155 1.632 25.7475 1.536C26.1875 1.432 26.6315 1.38 27.0795 1.38C27.2635 1.38 27.4515 1.388 27.6435 1.404C27.8355 1.42 28.0235 1.444 28.2075 1.476C28.3915 1.508 28.5635 1.552 28.7235 1.608C28.8915 1.664 29.0435 1.732 29.1795 1.812C29.3235 1.892 29.4475 1.984 29.5515 2.088C29.5595 2.096 29.5635 2.1 29.5635 2.1C29.5715 2.092 29.5755 2.084 29.5755 2.076C29.5755 1.756 29.5755 1.412 29.5755 1.044C29.5755 0.668 29.5755 0.319999 29.5755 -7.15256e-07H33.7275C33.7275 0.767999 33.7275 1.54 33.7275 2.316C33.7275 3.084 33.7275 3.852 33.7275 4.62C33.7275 5.348 33.7275 6.076 33.7275 6.804C33.7275 7.532 33.7275 8.264 33.7275 9H29.5755ZM34.207 9C34.207 8.632 34.207 8.268 34.207 7.908C34.207 7.54 34.207 7.176 34.207 6.816C34.207 6.448 34.207 6.084 34.207 5.724C34.207 5.572 34.207 5.42 34.207 5.268C34.207 5.116 34.207 4.964 34.207 4.812C34.671 4.812 35.131 4.812 35.587 4.812C36.051 4.812 36.515 4.812 36.979 4.812C37.443 4.812 37.903 4.812 38.359 4.812C38.359 5.276 38.359 5.74 38.359 6.204C38.359 6.668 38.359 7.136 38.359 7.608C38.359 8.072 38.359 8.536 38.359 9H34.207ZM34.207 4.812C34.207 4.268 34.207 3.724 34.207 3.18C34.207 2.636 34.207 2.096 34.207 1.56H38.359C38.359 1.824 38.359 2.088 38.359 2.352C38.359 2.616 38.359 2.88 38.359 3.144C38.359 3.408 38.359 3.672 38.359 3.936C38.359 3.936 38.355 3.94 38.347 3.948C37.659 4.092 36.967 4.236 36.271 4.38C35.583 4.524 34.895 4.668 34.207 4.812ZM48.4119 1.56C48.4119 2.096 48.4119 2.636 48.4119 3.18C48.4119 3.724 48.4119 4.268 48.4119 4.812C48.4119 5.276 48.4119 5.744 48.4119 6.216C48.4119 6.68 48.4119 7.144 48.4119 7.608C48.4119 8.072 48.4119 8.536 48.4119 9H44.2599C44.2599 8.664 44.2599 8.324 44.2599 7.98C44.2599 7.636 44.2599 7.292 44.2599 6.948C44.2599 6.596 44.2599 6.256 44.2599 5.928C44.2599 5.184 44.2599 4.456 44.2599 3.744C44.2599 3.024 44.2599 2.296 44.2599 1.56H48.4119ZM42.9879 1.56C42.9879 1.984 42.9879 2.412 42.9879 2.844C42.9879 3.268 42.9879 3.692 42.9879 4.116C42.9879 4.54 42.9879 4.968 42.9879 5.4C42.9879 5.576 43.0159 5.72 43.0719 5.832C43.1359 5.936 43.2159 6.012 43.3119 6.06C43.4159 6.1 43.5239 6.12 43.6359 6.12C43.7479 6.12 43.8599 6.1 43.9719 6.06C44.0919 6.02 44.1879 5.972 44.2599 5.916L43.2999 8.88C43.0759 8.992 42.7999 9.084 42.4719 9.156C42.1519 9.228 41.8159 9.264 41.4639 9.264C41.1439 9.264 40.8279 9.224 40.5159 9.144C40.2039 9.072 39.9199 8.948 39.6639 8.772C39.4159 8.596 39.2159 8.364 39.0639 8.076C38.9119 7.788 38.8359 7.428 38.8359 6.996C38.8359 6.42 38.8359 5.844 38.8359 5.268C38.8359 4.692 38.8359 4.116 38.8359 3.54C38.8359 3.212 38.8359 2.884 38.8359 2.556C38.8359 2.22 38.8359 1.888 38.8359 1.56H42.9879ZM48.8906 9C48.8906 8.432 48.8906 7.864 48.8906 7.296C48.8906 6.728 48.8906 6.16 48.8906 5.592C48.8906 5.016 48.8906 4.444 48.8906 3.876C48.8906 3.484 48.8906 3.096 48.8906 2.712C48.8906 2.328 48.8906 1.944 48.8906 1.56H53.0426C53.0426 2.088 53.0426 2.616 53.0426 3.144C53.0426 3.664 53.0426 4.188 53.0426 4.716C53.0426 5.428 53.0426 6.144 53.0426 6.864C53.0426 7.576 53.0426 8.288 53.0426 9H48.8906ZM54.3866 9C54.3866 8.376 54.3866 7.744 54.3866 7.104C54.3866 6.464 54.3866 5.832 54.3866 5.208C54.3866 4.976 54.3266 4.812 54.2066 4.716C54.0946 4.62 53.9586 4.568 53.7986 4.56C53.6386 4.552 53.4906 4.572 53.3546 4.62C53.2266 4.668 53.1466 4.716 53.1146 4.764L54.0746 1.68C54.6586 1.424 55.2906 1.296 55.9706 1.296C56.3066 1.296 56.6266 1.336 56.9306 1.416C57.2346 1.496 57.5066 1.62 57.7466 1.788C57.9946 1.956 58.1866 2.18 58.3226 2.46C58.4666 2.732 58.5386 3.06 58.5386 3.444C58.5386 3.676 58.5386 3.912 58.5386 4.152C58.5386 4.392 58.5386 4.628 58.5386 4.86C58.5386 4.972 58.5386 5.088 58.5386 5.208C58.5386 5.32 58.5386 5.432 58.5386 5.544C58.5386 5.656 58.5386 5.772 58.5386 5.892C58.5386 6.404 58.5386 6.92 58.5386 7.44C58.5386 7.96 58.5386 8.48 58.5386 9H54.3866ZM59.8106 9C59.8106 8.376 59.8106 7.744 59.8106 7.104C59.8106 6.464 59.8106 5.832 59.8106 5.208C59.8106 4.976 59.7506 4.812 59.6306 4.716C59.5186 4.62 59.3826 4.568 59.2226 4.56C59.0626 4.552 58.9146 4.572 58.7786 4.62C58.6506 4.668 58.5706 4.716 58.5386 4.764L59.3786 1.68C59.6666 1.552 59.9746 1.456 60.3026 1.392C60.6386 1.328 60.9706 1.296 61.2986 1.296C61.7626 1.296 62.1946 1.368 62.5946 1.512C63.0026 1.656 63.3306 1.884 63.5786 2.196C63.8346 2.508 63.9626 2.924 63.9626 3.444V9H59.8106Z" fill="white"/>
</svg>
