<svg width="13" height="9" viewBox="0 0 13 9" fill="none" xmlns="http://www.w3.org/2000/svg">
<path d="M9.78261e-06 -7.15256e-07H8.67601C9.38001 -7.15256e-07 9.96401 0.127999 10.428 0.383999C10.892 0.631999 11.24 0.956 11.472 1.356C11.704 1.748 11.82 2.164 11.82 2.604C11.82 3.06 11.692 3.504 11.436 3.936C11.188 4.36 10.808 4.708 10.296 4.98C9.79201 5.252 9.16001 5.388 8.40001 5.388C8.36801 5.388 8.28801 5.388 8.16001 5.388C8.03201 5.388 7.90001 5.388 7.76401 5.388C7.63601 5.388 7.55201 5.388 7.51201 5.388C7.51201 5.388 7.51201 5.392 7.51201 5.4C7.51201 5.408 7.51201 5.412 7.51201 5.412C7.51201 5.412 7.51201 5.416 7.51201 5.424C7.51201 5.424 7.51201 5.428 7.51201 5.436H10.236L12.084 9H6.38401C6.23201 8.592 6.07601 8.184 5.91601 7.776C5.76401 7.368 5.60801 6.96 5.44801 6.552C5.29601 6.144 5.14001 5.736 4.98001 5.328H6.37201C6.53201 5.328 6.67201 5.304 6.79201 5.256C6.92001 5.208 7.02401 5.144 7.10401 5.064C7.18401 4.984 7.24401 4.896 7.28401 4.8C7.32401 4.696 7.34401 4.592 7.34401 4.488C7.34401 4.344 7.30801 4.208 7.23601 4.08C7.16401 3.952 7.05601 3.848 6.91201 3.768C6.76801 3.688 6.58801 3.648 6.37201 3.648H5.00401C5.00401 3.648 5.00001 3.652 4.99201 3.66C4.99201 3.66 4.98801 3.66 4.98001 3.66C4.98001 3.66 4.98001 3.664 4.98001 3.672C4.98001 4.192 4.98001 4.576 4.98001 4.824C4.98001 5.064 4.98001 5.216 4.98001 5.28C4.98001 5.336 4.98001 5.356 4.98001 5.34C4.98001 5.34 4.98001 5.384 4.98001 5.472C4.98001 5.552 4.98001 5.664 4.98001 5.808C4.98001 5.952 4.98001 6.116 4.98001 6.3C4.98001 6.564 4.98001 6.856 4.98001 7.176C4.98001 7.496 4.98001 7.816 4.98001 8.136C4.98001 8.448 4.98001 8.736 4.98001 9H9.78261e-06C9.78261e-06 8.488 9.78261e-06 7.976 9.78261e-06 7.464C9.78261e-06 6.944 9.78261e-06 6.428 9.78261e-06 5.916C9.78261e-06 5.404 9.78261e-06 4.892 9.78261e-06 4.38C9.78261e-06 3.86 9.78261e-06 3.344 9.78261e-06 2.832C9.78261e-06 2.36 9.78261e-06 1.888 9.78261e-06 1.416C9.78261e-06 0.944 9.78261e-06 0.471999 9.78261e-06 -7.15256e-07Z" fill="white"/>
</svg>
